<?xml version="1.0" standalone="no"?>
<!DOCTYPE svg PUBLIC "-//W3C//DTD SVG 20010904//EN"
 "http://www.w3.org/TR/2001/REC-SVG-20010904/DTD/svg10.dtd">
<svg version="1.0" xmlns="http://www.w3.org/2000/svg"
 width="509.000000pt" height="510.000000pt" viewBox="0 0 509.000000 510.000000"
 preserveAspectRatio="xMidYMid meet">

<g transform="translate(0.000000,510.000000) scale(0.100000,-0.100000)"
fill="#000000" stroke="none">
<path d="M2240 5075 c-765 -93 -1449 -531 -1856 -1187 -71 -115 -181 -341
-229 -472 -196 -531 -202 -1140 -18 -1684 290 -857 1032 -1505 1922 -1676 207
-40 331 -49 564 -43 117 3 228 9 247 12 330 55 517 111 755 224 248 119 436
244 628 419 298 271 540 631 682 1016 196 531 202 1140 18 1684 -286 846
-1020 1494 -1894 1671 -251 51 -578 65 -819 36z m-40 -620 c-32 -33 -61 -47
-275 -130 -66 -26 -129 -51 -140 -55 -90 -40 -349 -140 -352 -136 -3 3 3 19
14 37 14 25 41 43 123 82 100 46 268 114 355 143 22 7 99 35 170 62 72 28 132
46 134 40 2 -5 -11 -25 -29 -43z m624 -39 c18 -7 43 -26 55 -42 46 -57 14
-180 -82 -325 -35 -54 -106 -138 -269 -324 -43 -48 -78 -91 -78 -96 0 -5 -4
-9 -10 -9 -5 0 -10 6 -10 13 0 22 59 138 92 181 38 49 175 205 199 226 9 8 33
37 53 63 42 57 47 99 14 134 -18 19 -32 23 -82 23 -96 0 -232 -26 -372 -71
-233 -74 -358 -117 -434 -147 -41 -16 -113 -44 -160 -62 -297 -115 -473 -193
-634 -283 -84 -47 -88 -51 -70 -65 28 -21 336 -235 434 -303 47 -32 128 -88
180 -124 52 -36 125 -87 162 -112 l67 -45 88 32 c71 26 108 34 189 38 l102 5
-13 51 c-7 28 -27 101 -44 161 -74 264 -89 418 -50 514 12 28 25 51 28 51 7 0
141 -265 141 -280 0 -5 -12 -5 -31 2 -16 6 -32 8 -34 6 -9 -9 35 -224 59 -290
45 -124 129 -236 221 -293 49 -31 55 -44 55 -124 0 -105 -6 -111 -66 -65 -84
64 -198 104 -299 104 -51 0 -143 -18 -150 -29 -2 -4 64 -64 147 -132 161 -132
178 -147 396 -337 121 -107 233 -192 252 -192 12 0 -19 277 -96 880 -8 63 -24
198 -35 299 -19 173 -19 188 -4 228 9 23 20 45 25 48 19 12 145 -229 172 -329
14 -54 6 -67 -25 -39 -46 41 -50 40 -44 -13 13 -119 58 -475 66 -534 6 -36 17
-128 26 -205 15 -127 32 -209 34 -163 1 25 232 160 248 145 18 -19 -28 -58
-137 -117 l-119 -65 6 -70 c3 -38 10 -76 16 -82 26 -34 166 3 233 61 l37 32
-12 119 c-7 66 -16 147 -22 180 -5 33 -14 96 -18 140 -12 111 -70 536 -76 560
-3 11 -9 61 -14 110 -14 132 -57 448 -86 625 -14 85 -25 171 -25 191 0 41 27
139 39 139 7 0 86 -138 133 -235 28 -57 54 -143 45 -151 -3 -4 -23 8 -43 25
-21 17 -40 29 -42 27 -5 -5 18 -268 24 -278 4 -6 47 -318 74 -528 4 -36 22
-166 39 -290 18 -124 36 -261 42 -305 5 -44 14 -108 19 -141 14 -85 12 -133
-5 -200 -18 -71 -50 -121 -107 -167 -46 -38 -162 -97 -190 -97 -14 0 -17 -24
-21 -222 -4 -208 -6 -229 -31 -305 -15 -46 -30 -83 -34 -83 -4 0 -8 65 -9 144
-1 79 -7 188 -13 242 -6 55 -14 127 -17 161 -5 58 -7 63 -37 73 -37 12 -138
73 -181 108 -16 13 -88 79 -160 146 -232 218 -279 259 -395 342 l-54 39 61
-75 c143 -176 190 -359 124 -488 -35 -68 -182 -163 -321 -206 -30 -10 -64 -21
-75 -26 -11 -5 -67 -24 -125 -43 -195 -65 -297 -120 -404 -217 -71 -66 -81
-95 -67 -206 22 -182 109 -289 276 -340 83 -25 256 -26 345 -1 l65 19 28 76
c16 42 42 108 58 146 l30 69 -47 48 c-54 55 -54 71 -3 132 26 32 36 37 58 32
22 -5 37 4 97 62 39 37 87 90 107 117 l37 49 -26 24 c-24 22 -26 30 -22 83 5
70 34 110 79 110 49 0 82 -84 62 -159 -7 -29 -6 -38 10 -54 20 -20 20 -68 0
-74 -6 -2 -21 5 -32 16 -20 20 -20 19 -136 -95 l-115 -116 30 -38 c16 -21 30
-46 30 -55 0 -9 -21 -45 -47 -78 -49 -64 -96 -165 -107 -229 l-7 -38 82 35
c184 79 372 194 497 303 57 49 62 57 57 83 -8 35 -63 163 -137 319 -95 199
-89 179 -73 240 8 29 21 60 29 69 14 13 19 12 43 -16 16 -17 60 -66 98 -108
39 -43 71 -82 73 -86 7 -18 -28 -20 -59 -5 l-31 15 6 -25 c4 -15 29 -73 57
-131 61 -130 72 -174 67 -261 -10 -178 -179 -344 -524 -513 -78 -38 -148 -69
-155 -69 -8 0 -23 -7 -33 -15 -44 -33 7 -229 71 -270 101 -67 239 16 441 264
211 261 300 328 612 461 80 34 173 76 207 93 l63 31 -6 40 c-3 23 -11 57 -17
76 -6 19 -11 85 -11 145 0 137 23 205 86 260 36 30 48 35 94 35 68 0 100 -26
145 -117 32 -64 34 -74 34 -173 0 -97 -2 -110 -32 -173 -18 -37 -55 -92 -84
-122 l-51 -54 21 -30 c12 -16 46 -42 76 -56 77 -38 173 -34 266 12 101 50 100
49 89 184 -12 151 -47 481 -60 566 -6 37 -17 124 -25 193 -8 69 -26 213 -40
320 -48 375 -86 676 -100 790 -7 63 -21 171 -30 240 -10 69 -18 141 -18 161 0
38 40 122 54 113 13 -8 97 -165 115 -215 31 -86 52 -169 44 -174 -4 -3 -23 9
-40 25 l-33 31 7 -68 c3 -37 13 -143 21 -234 8 -91 26 -262 40 -380 14 -118
40 -326 56 -464 17 -137 34 -284 39 -325 5 -41 20 -172 35 -290 26 -218 27
-296 3 -405 -37 -170 -154 -259 -343 -259 -85 0 -93 1 -136 31 -38 26 -119
128 -131 165 -4 11 -99 -14 -123 -32 -5 -4 -21 -11 -35 -15 -31 -10 -97 -39
-266 -120 -207 -99 -281 -157 -448 -355 -108 -128 -216 -241 -266 -275 -52
-36 -129 -43 -192 -18 -108 42 -179 136 -207 273 l-16 75 -72 -8 -73 -9 -2
-46 c-3 -75 1 -114 13 -129 10 -11 16 -10 35 8 21 19 24 20 30 6 3 -9 -2 -33
-13 -54 -24 -50 -61 -56 -93 -16 -19 24 -21 38 -18 93 2 36 11 80 20 97 l16
33 -96 0 c-162 0 -281 43 -356 127 -47 55 -57 71 -89 147 -25 61 -30 88 -35
193 -2 68 -7 123 -9 123 -3 0 -34 -23 -69 -51 -72 -57 -112 -72 -168 -63 -63
10 -102 31 -152 81 -123 125 -133 283 -35 541 l39 103 -42 21 c-112 56 -170
127 -192 234 -15 73 -15 85 0 174 14 78 29 119 82 227 63 127 65 134 54 169
-8 22 -11 66 -8 110 6 90 54 195 148 327 l64 88 1 77 c0 42 9 106 20 140 21
75 21 74 250 193 325 168 603 278 1105 434 43 13 247 67 300 78 14 3 41 10 60
15 52 15 106 14 144 -2z m664 -183 c82 -146 155 -333 137 -351 -3 -3 -21 10
-41 29 l-35 34 6 -55 c3 -30 10 -82 16 -115 18 -114 62 -420 73 -512 6 -50 13
-94 16 -97 3 -2 16 11 29 29 l23 34 -26 45 c-35 60 -34 100 3 137 43 42 76 39
101 -11 24 -47 25 -73 5 -130 -8 -23 -15 -56 -15 -72 0 -23 -4 -28 -17 -24
-13 4 -29 -9 -59 -47 l-41 -53 9 -75 c14 -113 5 -342 -17 -416 -10 -35 -21
-63 -25 -63 -4 0 -12 66 -18 148 -6 81 -18 186 -27 235 l-17 87 -47 -35 c-64
-48 -130 -87 -142 -83 -5 2 31 44 82 93 l91 90 -6 60 c-4 33 -11 96 -16 140
-26 242 -71 560 -111 775 -10 58 -19 115 -19 127 0 28 39 133 49 133 4 0 22
-26 39 -57z m-1100 -220 c-9 -64 -8 -76 7 -99 15 -24 18 -24 34 -10 25 23 31
20 31 -13 0 -32 -34 -81 -56 -81 -8 0 -24 21 -36 47 -17 38 -19 59 -15 112 7
71 27 135 39 123 4 -4 2 -40 -4 -79z m568 -29 c64 -42 68 -121 8 -173 -43 -38
-82 -40 -114 -6 -20 21 -22 31 -17 72 4 26 11 65 17 86 10 34 14 37 46 37 19
0 46 -7 60 -16z m-1166 -178 c-11 -77 -11 -100 0 -125 13 -33 28 -39 48 -19
17 17 25 -12 13 -45 -14 -36 -47 -52 -77 -38 -49 22 -56 100 -23 227 20 75 36
110 47 100 2 -3 -1 -48 -8 -100z m-347 -94 c-15 -87 -15 -95 1 -128 16 -35 17
-36 41 -20 25 16 25 16 25 -12 0 -77 -80 -99 -115 -31 -20 38 -19 85 5 173 41
154 70 166 43 18z m1877 -5 c-8 -39 -8 -68 0 -96 10 -39 40 -75 47 -56 2 6 8
17 13 25 9 13 11 13 20 0 14 -19 4 -69 -17 -92 -43 -48 -103 18 -103 114 0 65
29 183 42 170 4 -4 3 -34 -2 -65z m979 -322 c40 -82 67 -163 57 -172 -3 -3
-22 9 -42 26 -20 18 -37 31 -39 29 -5 -6 40 -389 55 -463 10 -52 44 -289 61
-430 6 -44 11 -174 12 -290 2 -201 1 -213 -22 -270 -45 -112 -45 -112 -66 195
-20 298 -29 385 -70 670 -43 300 -86 602 -95 677 -5 40 -14 81 -19 92 -8 14
-6 33 9 75 10 31 22 61 26 67 8 14 81 -98 133 -206z m-2261 163 c14 -12 16
-56 3 -76 -6 -10 -14 -9 -39 5 -48 28 -56 12 -63 -135 -9 -178 -19 -197 -60
-110 -34 74 -65 108 -98 108 -44 0 -73 34 -69 83 3 38 6 42 31 45 23 3 38 -6
76 -45 26 -26 54 -59 62 -73 16 -24 16 -22 23 50 14 136 70 199 134 148z m650
-64 c14 -9 22 -26 22 -43 0 -38 -8 -43 -41 -26 -21 11 -30 12 -35 3 -4 -6 -6
-65 -5 -130 3 -139 -4 -145 -64 -61 -46 65 -69 81 -115 87 -38 4 -60 28 -60
63 0 52 66 36 143 -35 44 -42 47 -43 47 -21 0 45 29 131 51 155 27 28 28 29
57 8z m339 -410 c-2 -104 0 -117 17 -130 27 -19 34 -18 38 9 2 12 10 22 18 22
24 0 26 -86 2 -115 -23 -28 -64 -22 -87 14 -28 43 -40 138 -26 213 11 61 26
103 36 103 2 0 3 -52 2 -116z m769 -161 c-3 -16 -9 -62 -12 -104 -6 -62 -4
-80 11 -102 21 -32 31 -34 40 -7 10 30 25 24 25 -10 0 -68 -45 -109 -88 -81
-35 22 -38 169 -5 279 16 53 40 74 29 25z m644 -87 c-10 -79 -2 -148 20 -170
8 -8 13 -7 19 3 5 7 14 10 20 7 18 -11 13 -54 -10 -77 -18 -18 -23 -19 -42 -6
-12 8 -28 25 -34 38 -15 29 -16 146 -3 209 20 91 21 93 31 83 5 -5 5 -38 -1
-87z m-1760 12 c0 -2 -7 -38 -15 -80 -15 -80 -12 -130 10 -148 9 -7 16 -6 25
5 17 20 40 19 40 -2 0 -25 -37 -82 -57 -90 -11 -4 -26 4 -45 25 -23 27 -28 41
-28 85 0 69 41 207 61 207 5 0 9 -1 9 -2z m897 -358 c34 -27 64 -50 66 -50 2
0 19 22 38 50 19 27 38 50 42 50 16 0 76 -51 112 -96 l36 -44 -28 -44 c-15
-25 -38 -49 -51 -55 -21 -10 -30 -6 -80 39 -31 27 -59 50 -62 50 -4 0 -21 -20
-39 -45 -18 -25 -38 -45 -44 -45 -29 0 -137 94 -137 118 0 22 60 122 73 122 7
0 40 -22 74 -50z m-333 -596 c16 -42 -3 -71 -30 -44 -15 15 -49 -13 -41 -34 5
-13 38 -22 69 -17 4 0 25 3 47 7 25 4 41 3 41 -3 0 -18 -34 -50 -75 -71 -22
-11 -55 -32 -74 -46 -19 -14 -43 -26 -54 -26 -16 0 -15 5 11 38 l30 37 -24 30
c-34 42 -30 67 16 109 43 38 74 46 84 20z m672 -17 c-31 -127 -31 -177 3 -219
l19 -23 7 28 c10 38 25 34 25 -7 0 -38 -33 -86 -59 -86 -24 0 -49 30 -57 68
-11 56 34 262 58 262 6 0 8 -10 4 -23z m-1836 -31 c0 -38 -55 -76 -200 -139
-211 -91 -278 -121 -319 -145 l-49 -28 20 -27 c20 -28 21 -68 2 -74 -6 -2 -26
8 -43 22 -64 55 -27 142 81 189 35 15 72 32 83 37 70 32 411 178 418 178 4 1
7 -5 7 -13z m363 -140 c42 -17 87 -70 87 -103 0 -85 -117 -150 -172 -96 -20
20 -20 25 -9 98 17 117 28 129 94 101z m-553 -191 c17 -18 20 -30 15 -54 -8
-37 -9 -37 -42 -11 -42 33 -46 27 -40 -67 6 -90 -7 -173 -29 -180 -6 -2 -22
18 -37 45 -33 60 -57 83 -99 91 -31 6 -33 9 -36 54 -2 35 1 49 12 53 22 9 67
-22 105 -72 19 -25 35 -43 37 -42 1 2 7 43 12 91 14 123 46 152 102 92z m-740
-97 c0 -2 -7 -21 -15 -43 -18 -52 -19 -86 -1 -111 12 -16 18 -17 35 -7 16 10
20 9 25 -4 9 -22 -26 -77 -51 -81 -27 -4 -63 41 -63 80 0 64 38 168 61 168 5
0 9 -1 9 -2z m2456 -225 c-14 -65 -18 -170 -7 -191 16 -30 28 -28 46 8 22 43
39 39 30 -7 -10 -56 -42 -95 -73 -91 -41 5 -54 40 -48 128 6 84 31 180 48 180
6 0 8 -11 4 -27z m-195 -122 c25 -24 30 -53 14 -75 -13 -18 -15 -18 -44 4 -17
11 -35 18 -41 15 -5 -3 -10 -36 -10 -72 0 -62 -23 -179 -39 -195 -4 -5 -22 23
-39 60 -33 69 -69 102 -111 102 -31 0 -53 41 -49 92 2 36 7 44 25 46 28 4 107
-67 134 -120 11 -21 23 -38 27 -38 4 0 13 36 18 80 16 118 60 157 115 101z
m-535 -133 c-17 -124 -18 -150 -6 -174 17 -31 26 -30 45 6 22 43 39 39 30 -7
-12 -64 -35 -94 -70 -91 -42 4 -57 38 -52 118 5 74 36 190 50 190 5 0 7 -18 3
-42z"/>
<path d="M953 3403 c-100 -130 -139 -244 -111 -327 7 -22 18 -41 24 -43 6 -2
29 15 53 38 23 23 45 39 48 36 3 -4 0 -28 -7 -54 -11 -39 -30 -65 -101 -136
-77 -78 -93 -100 -128 -181 -75 -170 -89 -303 -41 -395 29 -57 58 -73 134 -74
60 -1 67 2 157 59 76 48 227 159 249 184 3 3 41 39 85 79 44 41 123 115 175
165 52 51 114 108 137 128 l41 37 -211 160 c-117 89 -270 206 -341 261 -72 55
-131 100 -132 100 -1 0 -15 -17 -31 -37z m332 -283 c15 -16 17 -30 12 -80 -6
-56 -5 -63 23 -102 50 -69 34 -125 -21 -72 -16 15 -30 26 -32 23 -2 -2 -29
-38 -60 -79 -65 -88 -110 -132 -229 -226 -218 -173 -219 -161 -6 54 199 200
257 271 235 287 -23 17 -57 78 -57 103 0 35 27 80 58 96 37 21 56 20 77 -4z"/>
<path d="M1212 3039 c2 -7 14 -19 27 -27 22 -15 23 -15 19 9 -2 16 -10 25 -27
27 -15 3 -22 -1 -19 -9z"/>
<path d="M1720 2755 c-75 -53 -173 -138 -325 -283 -187 -178 -298 -262 -428
-322 -45 -21 -67 -37 -79 -62 -36 -71 -65 -157 -83 -246 -15 -80 -16 -101 -5
-153 16 -75 60 -144 102 -158 84 -30 148 3 292 149 110 112 215 190 331 248
33 16 150 64 260 107 236 92 317 129 406 187 65 42 66 44 56 73 -29 86 -150
249 -251 337 -116 103 -195 168 -204 168 -4 0 -37 -20 -72 -45z m-15 -335 l64
-51 18 26 c44 63 55 75 67 75 7 0 42 -30 79 -67 l66 -67 -24 -40 c-13 -23 -35
-50 -49 -60 l-25 -19 -62 56 -62 55 -39 -49 c-21 -27 -41 -49 -45 -49 -17 0
-143 110 -143 125 0 13 72 115 81 115 6 0 40 -23 74 -50z m-230 -165 c26 -25
32 -59 15 -85 -7 -12 -13 -11 -34 9 -14 14 -28 22 -31 19 -8 -8 -25 -116 -25
-158 0 -41 -18 -110 -28 -110 -4 0 -15 19 -26 41 -28 62 -64 99 -95 99 -16 0
-37 10 -50 24 -18 19 -21 30 -15 61 13 69 56 58 132 -33 l49 -60 6 79 c4 58
11 86 27 109 26 36 43 38 75 5z m-442 -301 c-22 -114 -6 -190 29 -134 19 30
28 24 28 -20 0 -27 -6 -45 -22 -60 -29 -27 -52 -25 -77 6 -28 35 -28 105 0
187 20 60 47 112 54 105 2 -2 -4 -39 -12 -84z"/>
<path d="M2340 1982 c0 -5 9 -17 21 -28 21 -19 21 -19 18 6 -4 23 -39 43 -39
22z"/>
<path d="M3537 1963 c-36 -18 -57 -62 -57 -117 0 -42 41 -177 61 -202 12 -15
68 13 128 63 42 35 43 38 37 79 -7 52 -45 131 -78 160 -31 29 -60 34 -91 17z"/>
<path d="M3720 3342 c0 -11 7 -25 16 -33 14 -11 15 -9 12 16 -3 32 -28 47 -28
17z"/>
<path d="M2878 3895 c-5 -48 11 -61 51 -40 37 18 39 38 9 59 -37 26 -55 20
-60 -19z"/>
<path d="M2384 1615 c-3 -12 -4 -34 -2 -46 4 -31 46 -37 77 -12 20 17 20 20 6
39 -8 12 -28 27 -45 32 -27 10 -30 9 -36 -13z"/>
</g>
</svg>
